# xmcd
#
# Track frame offsets:
#	150
#	12317
#	22441
#	37114
#	49858
#	66833
#	80186
#	91797
#	104210
#	113051
#	120630
#	129541
#	141277
#	155032
#	168122
#	178676
#	191759
#	203683
#
# Disc length: 2835 seconds
#
# Revision: 0
# Processed by: cddbd v1.5.2PL0 Copyright (c) Steve Scherf et al.
# Submitted via: EasyCDDAExtractor 15.3.0.1
#
DISCID=0b0b1112
DTITLE=Various Artist - Childrens Songs - Ia Cantar
DYEAR=2007
DGENRE=Latin
TTITLE0=Cantoalegre - El Barquito
TTITLE1=Cantoalegre - Bajo De Un Boton
TTITLE2=Cantoalegre - La Cucaracha
TTITLE3=Cantoalegre - Pinpon Tengo Una Muneca
TTITLE4=Cantoalegre - Los 20 Ratones
TTITLE5=Los Pico Pico - La Pinata
TTITLE6=Los Pico Pico - Cara Sucia
TTITLE7=Cantoalegre - La Chivita
TTITLE8=Cantoalegre - Arroz Con Leche
TTITLE9=Grupo Triqui Triqui - Mambru Se Fue A La Guerra
TTITLE10=Cantoalegre - Los Pollitos Dicen
TTITLE11=Cantoalegre - Yo Tengo Un Castillo
TTITLE12=Cantoalegre - El Gallo Pintor
TTITLE13=Los Pico Pico - Las Ballenas
TTITLE14=Grupo Triqui Triqui - En Un Bosque De La China
TTITLE15=Los Pico Pico - Los Patitos En El Agua
TTITLE16=Cantoalegre - Pinocho
TTITLE17=Grupo Triqui Triqui - Los Elefantes
EXTD=
EXTT0=
EXTT1=
EXTT2=
EXTT3=
EXTT4=
EXTT5=
EXTT6=
EXTT7=
EXTT8=
EXTT9=
EXTT10=
EXTT11=
EXTT12=
EXTT13=
EXTT14=
EXTT15=
EXTT16=
EXTT17=
PLAYORDER=
